<svg id="Capa_1" enable-background="new 0 0 512 512" height="512" viewBox="0 0 512 512" width="512" xmlns="http://www.w3.org/2000/svg"><g><g><path d="m1.25 386.5 12.066 12.066 11.034-11.033v56.2h17.067v-56.2l11.033 11.033 12.066-12.066-31.633-31.633z"/><path d="m24.35 494.933h17.067v17.067h-17.067z"/><path d="m24.35 460.8h17.067v17.067h-17.067z"/><path d="m223.433 295.347-24.303 8.098 4.548 25.011c.418 2.287 1.041 4.497 1.647 6.716l25.045-12.518-2.953-14.754c-.878-4.386-2.244-8.576-3.984-12.553z"/><path d="m341.03 290.142c-.137-.009-.273-.009-.401-.009-9.071 0-17.092 11.281-17.596 24.934-.512 13.85 6.861 25.847 16.111 26.189 9.233.435 17.485-11.076 17.997-24.926.512-13.849-6.869-25.847-16.111-26.188z"/><path d="m274.351 403.533 15.138-15.138c-4.019-3.106-8.422-5.777-13.218-7.834-5.257-2.253-10.138-5.129-14.686-8.397l-13.884 13.884c.503.239.956.546 1.468.777 9.378 4.266 17.809 9.967 25.182 16.708z"/><path d="m422.729 88.482-12.442-5.18-4.489-11.23c-17.51-43.784-59.289-72.072-106.436-72.072-23.245 0-46.464 2.859-69.001 8.499l-41.839 10.462c-37.649 9.421-77.594 3.524-110.848-16.085l-25.446 33.92c-12.475 16.623-19.345 37.231-19.345 58.018 0 37.009 21.376 70.733 54.11 86.818 3.849-15.078 11.443-29.013 22.101-40.542-4.89-5.905-7.945-13.38-7.945-21.623 0-18.825 15.309-34.133 34.133-34.133h1.246c13.005 0 24.713 7.228 30.532 18.867l1.459 2.918-15.266 7.637-1.459-2.918c-2.91-5.82-8.764-9.438-15.266-9.438h-1.246c-9.412 0-17.067 7.654-17.067 17.067s7.654 17.067 17.067 17.067h99.627c30.063 0 57.344 16.051 72.201 41.95 21.239 7.168 40.636 19.174 56.798 35.191l10.854-28.937 15.983 5.99-25.6 68.267-15.983-5.99 8.064-21.495c-24.934-27.793-60.194-43.776-97.707-43.776-55.398 0-105.139 35.055-123.776 87.228l-9.489 26.573-16.077-5.743 9.489-26.573c21.06-58.948 77.261-98.551 139.853-98.551 7.279 0 14.447.717 21.538 1.749-12.167-11.845-28.543-18.817-46.147-18.817h-99.627c-4.326 0-8.431-.887-12.237-2.364-13.926 14.285-21.897 33.468-21.897 53.564v38.332c0 21.231-7.305 42.052-20.574 58.641l-11.28 14.097c-1.468 1.843-2.287 4.156-2.287 6.511.009 5.743 4.685 10.419 10.428 10.419h23.714v60.732c0 27.682 22.519 50.202 50.202 50.202 5.41 0 10.752-.87 15.872-2.577l40.576-13.525 3.567 2.662c1.101.819 26.923 20.42 26.308 52.898v11.742h51.2v-19.917c0-31.215-18.364-59.733-46.771-72.653-28.902-13.141-49.545-39.629-55.228-70.852l-6.007-33.041c-.87-4.83-5.069-8.337-9.984-8.337-3.405 0-6.571 1.69-8.457 4.523l-11.52 17.271-14.199-9.463 11.52-17.28c5.06-7.595 13.534-12.117 22.656-12.117 10.069 0 18.987 5.521 23.697 13.901l19.465-6.485c-5.188-6.076-11.546-11.196-18.953-14.899l-3.9-1.954 7.646-15.258 3.9 1.954c21.581 10.786 36.676 30.558 41.412 54.221l3.311 16.529c3.908 19.567 17.203 35.942 35.541 43.81 19.063 8.166 33.809 23.279 41.515 42.53l6.434 16.085-15.846 6.34-6.434-16.085c-1.886-4.727-4.378-9.088-7.287-13.107l-15.462 15.462c12.715 16.606 20.045 37.205 20.045 58.897v19.925h34.131v-136.67c-.188 0-.367.068-.555.068-.341 0-.674 0-1.015-.017-18.816-.7-33.408-20.386-32.538-43.878.666-17.894 10.001-32.802 22.818-38.656l-4.412-11.776c-9.481-25.199-33.912-42.138-60.834-42.138-10.035 0-20.079 2.372-29.047 6.861l-18.62 9.31-7.637-15.266 18.62-9.31c11.332-5.666 24.013-8.661 36.685-8.661 33.997 0 64.853 21.385 76.791 53.214l5.939 15.829c16.486 3.482 28.698 21.615 27.904 43.119-.555 15.01-7.347 27.895-17.05 35.14v142.831h34.133v-39.279c0-47.121 22.724-91.844 60.774-119.629 36.753-26.829 58.692-70.016 58.692-115.516.002-57.924-34.55-109.747-88.019-132.028zm9.548 235.614-42.667-8.533 3.354-16.734 42.667 8.533zm-45.713-43.392-7.637-15.266 51.2-25.6 7.637 15.266z"/><path d="m232.785 376.832 16.137-16.137c-5.641-6.349-10.206-13.577-13.525-21.478l-23.782 11.887c5.196 9.941 12.33 18.765 21.17 25.728z"/></g></g></svg>