<?xml version="1.0" encoding="UTF-8"?>
<svg xmlns="http://www.w3.org/2000/svg" xmlns:xlink="http://www.w3.org/1999/xlink" version="1.1" id="Capa_1" x="0px" y="0px" viewBox="0 0 511.995 511.995" style="enable-background:new 0 0 511.995 511.995;" xml:space="preserve" width="512" height="512">
<g>
	<path style="fill:none;stroke:#000000;stroke-width:15;stroke-linecap:round;stroke-linejoin:round;stroke-miterlimit:10;" d="&#10;&#9;&#9;M132.762,172.143c12.594-2.737,24.173-9.443,32.787-19.152"/>
	<path style="fill:none;stroke:#000000;stroke-width:15;stroke-linecap:round;stroke-linejoin:round;stroke-miterlimit:10;" d="&#10;&#9;&#9;M167.861,183.87c-13.214,8.854-28.801,14.027-44.902,14.598"/>
	<path style="fill:none;stroke:#000000;stroke-width:15;stroke-linecap:round;stroke-linejoin:round;stroke-miterlimit:10;" d="&#10;&#9;&#9;M344.186,183.904c13.463,9.008,29.387,14.196,45.803,14.592"/>
	<path style="fill:none;stroke:#000000;stroke-width:15;stroke-linecap:round;stroke-linejoin:round;stroke-miterlimit:10;" d="&#10;&#9;&#9;M379.225,172.141c-12.252-2.664-23.544-9.085-32.077-18.373"/>
	<path style="fill:none;stroke:#000000;stroke-width:15;stroke-linecap:round;stroke-linejoin:round;stroke-miterlimit:10;" d="&#10;&#9;&#9;M170.72,51.073c20.792-18.388,51.54-30.026,85.846-30.026c33.963,0,64.438,11.405,85.218,29.475"/>
	<path style="fill:none;stroke:#000000;stroke-width:15;stroke-linecap:round;stroke-linejoin:round;stroke-miterlimit:10;" d="&#10;&#9;&#9;M324.846,335.661c1.305-13.969-0.616-28.105-5.678-41.298v0c-3.603-9.389-5.45-19.359-5.45-29.416v0&#10;&#9;&#9;c0-15.295,4.604-30.235,13.213-42.876l0,0c12.512-18.373,19.203-40.086,19.203-62.314V86.843"/>
	<path style="fill:none;stroke:#000000;stroke-width:15;stroke-linecap:round;stroke-linejoin:round;stroke-miterlimit:10;" d="&#10;&#9;&#9;M165.861,86.843v72.913c0,22.228,6.691,43.942,19.203,62.314l0,0c8.609,12.642,13.213,27.582,13.213,42.876v0&#10;&#9;&#9;c0,10.056-1.847,20.027-5.45,29.416l0,0c-6.426,16.747-7.789,35.012-3.921,52.528l29.787,134.86&#10;&#9;&#9;c0.288,1.303,1.084,2.436,2.212,3.149l0,0c20.333,12.843,46.077,13.483,67.023,1.664l2.978-1.681&#10;&#9;&#9;c1.237-0.698,2.119-1.889,2.425-3.276l10.859-49.161"/>
	<path style="fill:none;stroke:#000000;stroke-width:15;stroke-linecap:round;stroke-linejoin:round;stroke-miterlimit:10;" d="&#10;&#9;&#9;M64.435,136.09c-20.377-8.293-32.172-31.936-23.215-53.965c0.251-0.617,0.513-1.231,0.786-1.842&#10;&#9;&#9;c10.253-22.919,33.887-36.337,58.832-33.399c11.632,1.373,22.499,6.109,31.424,13.694c0,0,6.891,5.857,13.448,11.431&#10;&#9;&#9;c7.719,6.562,16.281,12.062,25.521,16.385l7.084,3.727c9.6,5.05,15.611,15.005,15.611,25.852v37.164&#10;&#9;&#9;c0,18.234,6.344,35.899,17.943,49.967l4.75,5.761c13.241,16.059,20.483,36.225,20.483,57.039v52.974&#10;&#9;&#9;c0,5.59-4.532,10.122-10.122,10.122h0c-3.526,0-6.796-1.833-8.633-4.842c-0.25-0.409-0.509-0.833-0.775-1.268&#10;&#9;&#9;c-4.193-6.866-13.284-8.819-19.976-4.243h0c-6.679,4.408-10.405,12.121-9.706,20.093l0.148,1.691"/>
	<path style="fill:none;stroke:#000000;stroke-width:15;stroke-linecap:round;stroke-linejoin:round;stroke-miterlimit:10;" d="&#10;&#9;&#9;M28.128,47.497c-5.2,6.14-9.61,13.1-13.03,20.75c-13.27,29.65-8.94,63.87,11.29,89.29l7.17,9.01"/>
	<path style="fill:none;stroke:#000000;stroke-width:15;stroke-linecap:round;stroke-linejoin:round;stroke-miterlimit:10;" d="&#10;&#9;&#9;M233.478,75.687c7.47,1.09,14.99,1.64,22.52,1.64c9.39,0,18.78-0.85,28.06-2.54c9.28-1.69,18.44-4.23,27.36-7.61&#10;&#9;&#9;c8.98-3.4,17.62-7.56,25.86-12.42c8.23-4.86,16.05-10.42,23.36-16.64c13.37-11.36,29.64-18.46,47.06-20.51&#10;&#9;&#9;c37.8-4.47,73.66,15.89,89.2,50.64c13.27,29.65,8.94,63.87-11.29,89.29l-6.83,8.58"/>
	<path style="fill:none;stroke:#000000;stroke-width:15;stroke-linecap:round;stroke-linejoin:round;stroke-miterlimit:10;" d="&#10;&#9;&#9;M55.768,25.887c14.63-7.22,31.38-10.31,48.53-8.28c8.71,1.03,17.13,3.31,25.05,6.76c7.91,3.45,15.33,8.07,22.01,13.75&#10;&#9;&#9;c7.31,6.22,15.13,11.78,23.36,16.64c7.94,4.69,16.26,8.72,24.9,12.05"/>
	<path style="fill:none;stroke:#000000;stroke-width:15;stroke-linecap:round;stroke-linejoin:round;stroke-miterlimit:10;" d="&#10;&#9;&#9;M275.048,262.757c1.09-18.98,8.19-37.16,20.33-51.89l4.75-5.76c11.6-14.07,17.94-31.74,17.94-49.97v-37.16&#10;&#9;&#9;c0-10.85,6.01-20.8,15.61-25.86l7.09-3.72c9.24-4.33,17.8-9.83,25.52-16.39c6.56-5.57,13.45-11.43,13.45-11.43&#10;&#9;&#9;c8.92-7.58,19.79-12.32,31.42-13.69c24.94-2.94,48.58,10.48,58.83,33.4c0.27,0.61,0.54,1.22,0.79,1.84&#10;&#9;&#9;c8.85,21.77-2.57,45.12-22.51,53.67"/>
	<path style="fill:none;stroke:#000000;stroke-width:15;stroke-linecap:round;stroke-linejoin:round;stroke-miterlimit:10;" d="&#10;&#9;&#9;M274.898,297.757v23.12c0,2.8,1.13,5.32,2.96,7.16c1.84,1.83,4.36,2.96,7.16,2.96c3.52,0,6.79-1.83,8.63-4.84&#10;&#9;&#9;c0.25-0.41,0.51-0.83,0.78-1.27c2.65-4.34,7.27-6.72,11.99-6.72c2.75,0,5.52,0.8,7.98,2.48c5.43,3.58,8.91,9.35,9.64,15.66"/>
	<path style="fill:none;stroke:#000000;stroke-width:15;stroke-linecap:round;stroke-linejoin:round;stroke-miterlimit:10;" d="&#10;&#9;&#9;M194.328,371.436L194.328,371.436c1.179,5.338,4.854,9.783,9.875,11.946l0,0c30.31,13.053,64.32,14.14,95.246,3.26"/>
	<path style="fill:none;stroke:#000000;stroke-width:15;stroke-linecap:round;stroke-linejoin:round;stroke-miterlimit:10;" d="&#10;&#9;&#9;M204.849,419.066L204.849,419.066c0.95,4.301,3.91,7.882,7.955,9.624l0,0c27.572,11.874,58.816,11.874,86.387,0l0,0&#10;&#9;&#9;c1.011-0.436,1.955-0.986,2.816-1.634"/>
	
		<ellipse transform="matrix(0.9082 -0.4186 0.4186 0.9082 -66.3051 50.5461)" style="fill:none;stroke:#000000;stroke-width:15;stroke-linecap:round;stroke-linejoin:round;stroke-miterlimit:10;" cx="82.061" cy="176.407" rx="51.355" ry="43.316"/>
	<path style="fill:none;stroke:#000000;stroke-width:15;stroke-linecap:round;stroke-linejoin:round;stroke-miterlimit:10;" d="&#10;&#9;&#9;M479.808,192.137c5.61-20.57-7.08-44.23-30.61-55.07c-25.75-11.87-54.75-3.88-64.77,17.84c-10.01,21.73,2.75,48.97,28.51,60.84&#10;&#9;&#9;c14.55,6.7,30.12,7.07,42.73,2.21"/>
	
		<circle style="fill:none;stroke:#000000;stroke-width:15;stroke-linecap:round;stroke-linejoin:round;stroke-miterlimit:10;" cx="393.663" cy="400.786" r="94.214"/>
	
		<polygon style="fill:none;stroke:#000000;stroke-width:15;stroke-linecap:round;stroke-linejoin:round;stroke-miterlimit:10;" points="&#10;&#9;&#9;342.948,383.557 376.435,383.557 376.435,350.071 410.891,350.071 410.891,383.557 444.378,383.557 444.378,418.014 &#10;&#9;&#9;410.891,418.014 410.891,451.5 376.435,451.5 376.435,418.014 342.948,418.014 &#9;"/>
</g>















</svg>