<svg clip-rule="evenodd" fill-rule="evenodd" stroke-linejoin="round" stroke-miterlimit="2" viewBox="0 0 510 510" xmlns="http://www.w3.org/2000/svg"><path d="m141.017 273.293c-1.064 4.133-1.395 8.361-1.04 12.508.33 3.849 3.722 6.707 7.572 6.377 3.849-.329 6.707-3.722 6.377-7.571-.395-4.616.57-9.394 3.06-13.708.617-1.066.939-2.267.938-3.5 0-1.274-.341-2.47-.938-3.5-.593-1.031-1.458-1.924-2.562-2.562-1.067-.617-2.268-.938-3.5-.938-21.181 0-37.864-20.73-37.916-41.91.802-26.407 22.479-47.568 49.101-47.568 8.432 0 16.376 2.117 23.326 5.87 6.06 4.906 9.924 12.777 9.924 21.604 0 3.863 3.137 7 7 7 3.864 0 7-3.137 7-7 0-11.565-4.521-21.983-11.706-29.37 9.737-16.655 27.805-27.849 48.503-27.849 15.291 0 29.167 6.117 39.289 16.045-16.188 12.933-25.001 33.428-25.001 56.058 0 12.792 3.432 24.789 9.42 35.122 1.937 3.343 6.224 4.484 9.567 2.546 3.342-1.937 4.483-6.223 2.546-9.566-4.791-8.267-7.533-17.867-7.533-28.102 0-20.412 8.566-38.862 24.861-48.686 9.348-4.718 19.889-7.352 31.065-7.352 38.221 0 69.203 30.983 69.203 69.203 0 19.728-8.276 37.538-21.543 50.15l-.019.018c-4.475 4.206-11.066 5.909-16.692 2.733-3.364-1.899-7.638-.71-9.537 2.655-1.899 3.364-.709 7.638 2.655 9.537 8.198 4.627 17.486 4.397 25.352.636 3.507 9.969 3.385 19.55.053 28.047-4.209 10.734-13.393 19.616-26.092 25.531-10.433 4.856-17.168 10.973-21.401 17.485-6.946 10.682-7.301 22.645-4.99 33.19 1.258 5.736 3.303 11.012 5.33 15.314h-43.117c-.876-15.471-7.087-50.692-44.353-66.86-1.451-.63-3.071-.749-4.598-.34-49.331 13.22-71.711-9.017-84.697-19.429l-.007-.006c-11.486-9.184-18.442-8.758-26.091-6.462-5.31 1.594-11.145 4.929-21.35 4.929-27.133 0-49.122-21.989-49.122-49.122 0-24.084 17.339-44.117 40.217-48.307 3.229 22.291 20.003 42.316 41.446 47.15zm151.769 1.445c3.997 6.923 1.621 15.788-5.302 19.785s-15.788 1.622-19.785-5.301c-1.932-3.346-6.217-4.494-9.562-2.563-3.346 1.932-4.494 6.217-2.563 9.563 7.861 13.614 25.296 18.286 38.91 10.425 13.615-7.86 18.286-25.295 10.426-38.909-1.932-3.346-6.216-4.494-9.562-2.562-3.346 1.931-4.494 6.216-2.562 9.562zm-243.549 89.61c1.817 3.41.525 7.653-2.885 9.47-3.409 1.817-7.652.525-9.469-2.885-18.432-34.579-28.883-74.045-28.883-115.933 0-136.323 110.677-247 247-247 25.04 0 49.215 3.736 71.997 10.677 3.696 1.126 5.782 5.04 4.656 8.736s-5.04 5.782-8.736 4.656c-21.491-6.548-44.296-10.069-67.917-10.069-128.596 0-233 104.404-233 233 0 39.508 9.853 76.734 27.237 109.348zm411.526-218.696c-1.817-3.41-.525-7.653 2.885-9.47 3.409-1.817 7.652-.525 9.469 2.885 18.432 34.579 28.883 74.045 28.883 115.933 0 136.323-110.677 247-247 247-25.04 0-49.215-3.736-71.997-10.677-3.696-1.126-5.782-5.04-4.656-8.736s5.04-5.782 8.736-4.656c21.491 6.548 44.296 10.069 67.917 10.069 128.596 0 233-104.404 233-233 0-39.508-9.853-76.734-27.237-109.348zm-77.807-47.447h-30.971c-1.326 0-2.598-.526-3.535-1.464-.938-.938-1.465-2.21-1.465-3.536v-37.234c0-1.326.527-2.598 1.465-3.536.937-.937 2.209-1.464 3.535-1.464h30.971v-30.971c0-1.326.527-2.598 1.464-3.536.938-.937 2.21-1.464 3.536-1.464h37.234c1.327 0 2.598.527 3.536 1.464.938.938 1.464 2.21 1.464 3.536v30.971h30.971c1.326 0 2.598.527 3.536 1.464.938.938 1.464 2.21 1.464 3.536v37.234c0 1.326-.526 2.598-1.464 3.536s-2.21 1.464-3.536 1.464h-30.971v30.971c0 1.326-.526 2.598-1.464 3.536s-2.209 1.464-3.536 1.464h-37.234c-1.326 0-2.598-.526-3.536-1.464-.937-.938-1.464-2.21-1.464-3.536zm-308.2 360.824h-30.97c-1.326 0-2.598-.527-3.536-1.464-.938-.938-1.464-2.21-1.464-3.536v-37.234c0-1.326.526-2.598 1.464-3.536s2.21-1.464 3.536-1.464h30.97v-30.971c0-1.326.527-2.598 1.465-3.536s2.209-1.464 3.535-1.464h37.235c1.326 0 2.598.526 3.536 1.464.937.938 1.464 2.21 1.464 3.536v30.971h30.971c1.326 0 2.598.526 3.535 1.464.938.938 1.465 2.21 1.465 3.536v37.234c0 1.326-.527 2.598-1.465 3.536-.937.937-2.209 1.464-3.535 1.464h-30.971v30.971c0 1.326-.527 2.598-1.464 3.536-.938.937-2.21 1.464-3.536 1.464h-37.235c-1.326 0-2.597-.527-3.535-1.464-.938-.938-1.465-2.21-1.465-3.536z"/></svg>