<svg id="_x33_0" enable-background="new 0 0 64 64" height="512" viewBox="0 0 64 64" width="512" xmlns="http://www.w3.org/2000/svg"><g><path d="m29.496 50.059c-1.228 1.841-3.283 2.941-5.496 2.941h-1v-2h-5c-2.757 0-5-2.243-5-5v-3.064c-.218.028-.434.064-.657.064h-.343c-1.053 0-2.06.191-3 .525v6.475c0 1.654 1.346 3 3 3h1v1c0 .551.448 1 1 1s1-.449 1-1v-1h1c3.531 0 6.452 2.63 6.925 6.033.159-.007.316-.033.475-.033h2.994c.596 0 1.171.174 1.665.504l.479.32c1.154.769 2.497 1.176 3.884 1.176h6.578v-6h-4.838c-1.46 0-2.751.931-3.214 2.316l-1.896-.633c.734-2.203 2.788-3.683 5.11-3.683h4.838v-6h-3.789c-2.302 0-4.439 1.144-5.715 3.059z"/><path d="m16.805 55.065c-.431 1.13-1.526 1.935-2.805 1.935-1.331 0-2.462-.871-2.854-2.073-2.351-.406-4.146-2.461-4.146-4.927v-5.478c-2.41 1.616-4 4.365-4 7.478 0 4.962 4.037 9 9 9 1.897 0 3.785-.264 5.61-.786l2.769-.791c.181-.052.368-.075.551-.117-.331-2.194-2-3.895-4.125-4.241z"/><path d="m12.343 41c.802 0 1.556-.312 2.122-.878l.224-.225-1.556-10.897h-4.133v12.426c.955-.271 1.959-.426 3-.426z"/><path d="m38 43c-.552 0-1 .449-1 1v1h2v-1c0-.551-.448-1-1-1z"/><path d="m23 15c-1.103 0-2 .897-2 2s.897 2 2 2z"/><path d="m39 36c0 2.757-2.243 5-5 5h-4c-2.757 0-5-2.243-5-5v-5.178c-1.379.423-2.713.951-4 1.573v8.706c2.279.465 4 2.484 4 4.899v4.891c1.147-.254 2.165-.94 2.832-1.941 1.609-2.414 4.277-3.868 7.168-3.936v-1.014c0-1.654 1.346-3 3-3h5v-8.605c-1.287-.622-2.621-1.15-4-1.573z"/><path d="m47.927 35.441c-.94-.723-1.916-1.382-2.927-1.975v7.534h2.132z"/><path d="m14.121 26.464c.559-.558.879-1.331.879-2.121v-2.343c0-.551-.448-1-1-1s-1 .449-1 1v1h-2v-1c0-1.302.839-2.402 2-2.816v-.184c0-1.103-.897-2-2-2s-2 .897-2 2v8h4.586z"/><path d="m50.414 27h4.586v-8c0-1.103-.897-2-2-2s-2 .897-2 2v.184c1.161.414 2 1.514 2 2.816v1h-2v-1c0-.551-.448-1-1-1s-1 .449-1 1v2.343c0 .79.32 1.563.879 2.121z"/><path d="m55 41v-12h-4.133l-1.714 12z"/><path d="m15 46c0 1.654 1.346 3 3 3h5v-3c0-1.654-1.346-3-3-3h-1.618l-.741-1.482c-.27-.541-1.073-.67-1.501-.244l-.26.261c-.268.268-.567.492-.88.69z"/><path d="m16.803 39c.859 0 1.649.368 2.197.991v-6.525c-1.011.594-1.987 1.253-2.927 1.975l.512 3.581c.073-.006.144-.022.218-.022z"/><path d="m42 43h-1.184c.112.314.184.648.184 1v17h2v-17c0-.551-.448-1-1-1z"/><path d="m27.781 30.086-.781.195v2.331l2.873-.957z"/><path d="m27 36c0 1.134.64 2.111 1.571 2.621l1.275-2.549-1.254-1.881-1.592.53z"/><path d="m35 26.92c-.328.047-.66.08-1 .08h-4c-.34 0-.672-.033-1-.08v1.58l3 2.25 3-2.25z"/><path d="m41 15v4c1.103 0 2-.897 2-2s-.897-2-2-2z"/><path d="m31.618 37-1 2h2.764l-1-2z"/><path d="m41.461 9.4-.455-.257-.049-.52c-.196-2.065-1.897-3.623-3.957-3.623-.346 0-.708.061-1.142.19l-.808.242-.375-.756c-.513-1.033-1.538-1.676-2.675-1.676s-2.162.643-2.676 1.677l-.375.756-.807-.243c-.434-.129-.796-.19-1.142-.19-2.06 0-3.761 1.558-3.957 3.623l-.049.52-.455.257c-.949.535-1.539 1.532-1.539 2.6 0 .484.127.948.344 1.369.506-.232 1.064-.369 1.656-.369v-1c0-1.654 1.346-3 3-3h12c1.654 0 3 1.346 3 3v1c.592 0 1.15.137 1.656.369.217-.421.344-.886.344-1.369 0-1.068-.59-2.065-1.539-2.6z"/><path d="m44.816 43c.112.314.184.648.184 1v17h16v-18z"/><path d="m39 17v-5c0-.551-.448-1-1-1h-12c-.552 0-1 .449-1 1v5h6v-2h2v2zm-11-2c-.552 0-1-.448-1-1s.448-1 1-1 1 .448 1 1-.448 1-1 1zm8-2c.552 0 1 .448 1 1s-.448 1-1 1-1-.448-1-1 .448-1 1-1z"/><path d="m25 20c0 2.757 2.243 5 5 5h4c2.757 0 5-2.243 5-5v-1h-14z"/><path d="m37 30.281-.781-.195-2.092 1.569 2.873.957z"/><path d="m35.429 38.621c.931-.51 1.571-1.487 1.571-2.621v-1.279l-1.592-.531-1.254 1.881z"/><path d="m32 33.054-1.442.481.977 1.465h.93l.977-1.465z"/></g></svg>