<?xml version="1.0" encoding="UTF-8"?>
<!-- Generator: Adobe Illustrator 26.0.3, SVG Export Plug-In . SVG Version: 6.00 Build 0)  -->
<svg xmlns="http://www.w3.org/2000/svg" xmlns:xlink="http://www.w3.org/1999/xlink" version="1.1" id="Capa_1" x="0px" y="0px" viewBox="0 0 512 512" style="enable-background:new 0 0 512 512;" xml:space="preserve" width="512" height="512">
<g>
	<g>
		<path d="M109.982,402.578l15.912-3.978l7.202-18.004c8.162-20.408,21.492-38.521,38.546-52.384    c14.538-11.816,31.549-20.34,49.647-24.968c-0.394-2.484-0.599-4.999-0.599-7.519c0-4.736,1.075-9.226,2.987-13.241h-55.953    c-53.543,0-97.103,43.561-97.103,97.103c0,21.102,6.77,40.651,18.247,56.597c-0.387-1.875-0.591-3.817-0.591-5.804    C88.276,417.205,97.202,405.772,109.982,402.578z"/>
		<path d="M251.586,282.483c-7.302,0-13.241,5.94-13.241,13.241c0,6.642,2.195,13.224,6.179,18.538l29.131,38.841    c8.291,11.055,21.492,17.655,35.31,17.655c9.487,0,18.893-3.135,26.483-8.828l42.509-31.882    c6.548-4.91,10.456-12.728,10.456-20.914v-0.511c0-14.414-11.727-26.142-26.142-26.142c-8.425,0-16.377,4.093-21.272,10.947    l-36.056,50.478l-40.116-40.115v-8.069C264.828,288.423,258.888,282.483,251.586,282.483z"/>
		<path d="M370.645,403.676l-65.957,42.678c-12.82,8.296-27.669,12.681-42.941,12.681H259.4c-26.369,0-51.106-13.464-65.634-35.029    c-3.339,2.296-6.835,4.398-10.51,6.236l-0.659,0.33l-10.468,15.702c-5.326,7.991-14.24,12.761-23.843,12.761h-31.352    c-1.988,0-3.929-0.204-5.804-0.591c15.945,11.477,35.494,18.247,56.596,18.247h194.207c53.543,0,97.103-43.561,97.103-97.103    c0-23.477-8.448-45.884-23.556-63.396C425.366,351.799,402.673,382.952,370.645,403.676z"/>
		<path d="M317.793,199.379v24.341c0,22.667,18.441,41.108,41.109,41.108h3.029v0.01c0.114-0.001,0.226-0.01,0.341-0.01    c24.149,0,43.797,19.648,43.797,43.797v0.511c0,13.713-6.549,26.81-17.518,35.038l-42.509,31.883    c-10.626,7.968-23.793,12.358-37.076,12.358c-19.347,0-37.826-9.24-49.434-24.717L230.4,324.855    c-1.174-1.566-2.25-3.202-3.222-4.896c-35.318,8.434-64.073,33.152-77.689,67.192l-10.554,26.388l-24.67,6.166    c-4.907,1.227-8.333,5.615-8.333,10.673c0,6.066,4.936,11.001,11.001,11.001h31.352c3.687,0,7.108-1.831,9.153-4.898    l13.069-19.604l4.852-2.426c18.381-9.19,31.782-25.896,36.766-45.833l17.128,4.283c-3.769,15.078-11.406,28.659-21.921,39.598    c11.106,17.724,30.911,28.881,52.068,28.881h2.347c11.861,0,23.392-3.405,33.348-9.849l65.958-42.678    c38.536-24.935,61.804-66.913,62.632-112.678c-11.523-18.238-17.615-39.202-17.615-60.83v-8.938l23.044-11.522    c7.566-3.784,12.266-11.388,12.267-19.847v-0.658c0-8.535-6.996-15.48-15.596-15.481h-1.025h-0.001    c-4.002,0-7.766,1.56-10.598,4.392l-1.848,1.848l-12.483-12.483l1.847-1.847c6.165-6.167,14.362-9.565,23.081-9.565    c0.001,0,0.001,0,0.002,0h1.026c18.336,0.002,33.251,14.868,33.25,33.138v0.658c0,15.189-8.44,28.844-22.026,35.637l-13.265,6.633    c0.318,15.784,4.48,31.102,12.119,44.822l25.134-12.567C492.457,233.833,512,202.211,512,167.039    c0-53.165-43.253-96.418-96.418-96.418h-0.245c-46.023,0-84.181,34.532-88.759,80.327l-0.415,4.152l-21.674,14.45    c-2.723,1.816-4.35,4.854-4.35,8.128c0,2.61,1.016,5.062,2.861,6.908L317.793,199.379z M375.206,114.242    c10.84-16.259,28.979-25.966,48.519-25.966v17.655c-13.624,0-26.271,6.767-33.828,18.104l-2.965,4.448l-14.69-9.793    L375.206,114.242z M361.478,156.104l0.454,1.358c3.806,11.418,14.449,19.09,26.483,19.09v17.655    c-19.646,0-37.02-12.522-43.232-31.16l-0.454-1.357L361.478,156.104z"/>
		<path d="M302.69,316.689l23.943-33.521c0.168-0.234,0.35-0.455,0.522-0.685h-47.658c1.913,4.015,2.987,8.505,2.987,13.241v0.758    L302.69,316.689z"/>
		<path d="M445.629,276.986l-4.344,2.173c-0.191,5.457-0.681,10.858-1.428,16.195c23.465,21.709,36.833,52.124,36.833,84.232    c0,63.278-51.48,114.759-114.759,114.759H167.724c-63.278,0-114.759-51.48-114.759-114.759s51.48-114.759,114.759-114.759h149.24    c-4.979-5.078-9.042-11.051-11.929-17.655H167.724c-73.013,0-132.414,59.401-132.414,132.414S94.711,512,167.724,512h194.207    c73.013,0,132.414-59.401,132.414-132.414C494.345,339.352,476.653,302.264,445.629,276.986z"/>
		<path d="M170.845,149.534c3.68,3.68,5.707,8.573,5.707,13.777v30.553l26.658,24.525c7.8,7.176,17.932,11.128,28.531,11.128    c8.346,0,16.43-2.447,23.375-7.078l4.509-3.007L147.853,111.801l-6.077,6.077c-0.34,0.342-0.535,0.813-0.535,1.294    c0,0.481,0.195,0.952,0.535,1.293L170.845,149.534z"/>
		<path d="M158.897,163.31c0-0.481-0.195-0.952-0.535-1.293l-29.068-29.068c-3.68-3.68-5.707-8.573-5.707-13.777    c0-5.204,2.027-10.097,5.707-13.777l5.842-5.842L38.097,6.111C34.005,2.17,28.622,0,22.942,0h-1.094C9.801,0,0,9.801,0,21.848    c0,6.093,2.572,11.954,7.057,16.079l151.84,139.693V163.31z"/>
	</g>
</g>















</svg>