<svg id="Layer_1" viewBox="0 0 512 512" xmlns="http://www.w3.org/2000/svg" data-name="Layer 1"><path d="m297.873 382.018c0 16.639 6.665 31.736 16.986 44.732-12.989 42.699-51.851 74.415-98.115 76.678 26.587-18.686 54.415-45.622 55.129-77.649.561-25.201-15.713-44.579-35.103-58.606-19.815-15.02-39.057-31.352-57.311-48.225-3.863-3.571-7.755-7.224-11.634-10.953 13.595 5.007 28.287 7.744 43.62 7.744 38.105 0 72.266-16.888 95.407-43.586 1.578-.03 3.189.249 4.76.855 4.844 1.87 7.881 6.298 7.881 11.49v14.601l-17.153 7.407c-2.771 1.197-4.466 3.776-4.466 6.793v68.719zm36.695-158.785c18.537 0 33.703-15.166 33.703-33.702 0-18.537-15.166-33.703-33.703-33.703h-1.474c2.966 10.73 4.558 22.029 4.558 33.703s-1.592 22.973-4.558 33.703h1.474zm-246.248-67.406c-18.537 0-33.703 15.166-33.703 33.703 0 18.537 15.166 33.703 33.703 33.703h1.474c-2.966-10.73-4.558-22.03-4.558-33.703s1.592-22.973 4.558-33.703zm104.989 346.192c-50.87-8.691-89.912-53.258-89.912-106.507v-111.015c0-5.193 3.037-9.62 7.881-11.49 1.57-.606 3.181-.886 4.759-.855 27.038 35.189 76.83 79.324 112.405 106.275 58.447 42.175 21.001 89.432-35.133 123.593zm35.511-78.886c0-9.57-7.805-17.376-17.376-17.376s-17.376 7.806-17.376 17.376 7.806 17.376 17.376 17.376 17.376-7.805 17.376-17.376zm228.562-105.495v64.38c0 32.629-35.094 62.694-72.755 75.372-37.661-12.678-72.755-42.743-72.755-75.372v-64.38l72.755-31.417zm-29.962 43.646c0-2.555-2.084-4.639-4.639-4.639h-22.993v-22.993c0-2.555-2.084-4.639-4.639-4.639h-21.043c-2.555 0-4.639 2.084-4.639 4.639v22.993h-22.993c-2.555 0-4.639 2.084-4.639 4.639v21.044c0 2.555 2.084 4.639 4.639 4.639h22.993v22.993c0 2.555 2.084 4.639 4.639 4.639h21.043c2.555 0 4.639-2.084 4.639-4.639v-22.993h22.993c2.555 0 4.639-2.084 4.639-4.639zm-328.184-171.754c0-58.615 45.344-106.972 102.746-111.804.14-.825.242-1.424.282-1.661 2.427-14.151 6.653-25.019 12.583-32.339 2.303-2.839 4.961-5.128 7.825-6.854 1.89-7.375 5.479-15.656 10.758-24.799 1.3-2.251 3.659-3.505 6.083-3.5 1.183.003 2.382.306 3.48.94 3.347 1.933 4.494 6.213 2.56 9.563-3.129 5.418-5.372 10.093-6.953 14.108 4.168.438 8.23 1.976 11.818 4.671 4.924 3.692 8.092 8.927 8.919 14.735 1.343 9.418-3.163 16.966-11.476 19.232-8.438 2.304-20.306-1.889-24.755-12.677-.219-.53-.42-1.075-.603-1.625-2.262 4.29-4.587 10.632-6.263 19.911 59.592 2.528 107.411 51.904 107.411 112.099 0 61.802-50.406 112.208-112.208 112.208s-112.208-50.406-112.208-112.208zm136.814-135.726c1.546 3.75 5.773 5.158 8.128 4.512.617-.164 1.768-.482 1.303-3.745-.175-1.224-.857-3.562-3.463-5.519-2.007-1.504-4.406-2.111-6.852-1.899-.162 3.331.388 5.456.883 6.651zm9.096 138.774c.309 3.653 3.368 6.411 6.966 6.411.198 0 .397-.01.601-.029 3.852-.323 6.708-3.711 6.381-7.562-.243-2.868 1.128-5.582 3.576-7.09 2.449-1.509 5.492-1.509 7.942 0 2.448 1.509 3.818 4.222 3.576 7.09-.328 3.851 2.53 7.24 6.382 7.562 3.853.328 7.24-2.531 7.565-6.382.695-8.16-3.208-15.897-10.184-20.196-6.976-4.295-15.642-4.295-22.62 0-6.976 4.299-10.879 12.036-10.184 20.196zm-59.238 21.628c1.439 7.028 5.765 13.216 11.871 16.971 4.216 2.598 8.939 3.895 13.666 3.895s9.45-1.297 13.664-3.895c6.106-3.755 10.433-9.944 11.871-16.971.774-3.784-1.666-7.486-5.455-8.257-3.788-.781-7.484 1.663-8.262 5.451-.665 3.254-2.668 6.117-5.494 7.857-3.901 2.405-8.75 2.405-12.651 0-2.826-1.74-4.828-4.603-5.494-7.857-.776-3.788-4.474-6.227-8.261-5.451-3.787.771-6.23 4.468-5.455 8.257zm-51.156-21.628c.328 3.851 3.713 6.719 7.567 6.382 3.852-.323 6.71-3.711 6.383-7.562-.243-2.868 1.128-5.582 3.575-7.09 2.45-1.509 5.492-1.509 7.942 0 2.448 1.509 3.818 4.222 3.573 7.09-.325 3.851 2.531 7.24 6.383 7.562.202.019.403.029.601.029 3.598 0 6.657-2.757 6.968-6.411.692-8.16-3.21-15.897-10.186-20.196-6.976-4.295-15.644-4.295-22.621 0-6.975 4.299-10.877 12.036-10.186 20.196z" fill-rule="evenodd"/></svg>