<?xml version="1.0"?>
<svg xmlns="http://www.w3.org/2000/svg" viewBox="0 0 512 512" width="512" height="512"><g id="SOLID"><path d="M297.10547,67.6084,344,91.05566V54.84326a36.67037,36.67037,0,0,1-13.45312,5.79834Z"/><circle cx="296" cy="136" r="16"/><path d="M342.57031,32H196a28.03146,28.03146,0,0,0-28,28V78.16113L327.2832,44.97754A21.09616,21.09616,0,0,0,342.57031,32Z"/><circle cx="216" cy="136" r="16"/><path d="M216,104a32.05794,32.05794,0,0,1,30.9873,24h18.0254a32.00443,32.00443,0,0,1,61.9746,0H344V108.94434L271.85107,72.86987,168,94.50562V128h17.0127A32.05794,32.05794,0,0,1,216,104Z"/><path d="M155.573,172.89355l13.06592,3.282a71.54086,71.54086,0,0,0,39.16088,54.78051l30.31153,15.15528a40.19,40.19,0,0,0,35.77637,0l30.3125-15.15528a71.54177,71.54177,0,0,0,39.15527-54.73291l13.31689-3.32959A14.63811,14.63811,0,0,0,353.04541,144H326.9873a32.00443,32.00443,0,0,1-61.9746,0H246.9873a32.00443,32.00443,0,0,1-61.9746,0H159.12964a14.66577,14.66577,0,0,0-3.55664,28.89355ZM240,192a16,16,0,0,0,32,0h16a32,32,0,0,1-64,0Z"/><path d="M230.95605,260.42188,216,252.94385V284l1.63086,1.22363A88.45218,88.45218,0,0,1,252.15137,344.708L255.0625,368h1.875l2.91113-23.292a88.45389,88.45389,0,0,1,34.52149-59.48535L296,284V252.9436l-14.957,7.47828a56.26391,56.26391,0,0,1-50.08692,0Z"/><path d="M474.98145,469.96387,446.87207,363.14648a39.875,39.875,0,0,0-26.03516-27.76757L328,304.43335V401.0127a32,32,0,1,1-16,0V299.09985l-6.55322-2.18432-1.47608,1.10693a72.37249,72.37249,0,0,0-28.24511,48.66992L271.0625,384h-30.125l-4.66309-37.30762a72.37072,72.37072,0,0,0-28.24414-48.66894l-1.477-1.10791L200,299.09985v61.70508A40.06838,40.06838,0,0,1,232,400v40a24.0275,24.0275,0,0,1-24,24h-8V448h8a8.00917,8.00917,0,0,0,8-8V400a24,24,0,0,0-48,0v40a8.00917,8.00917,0,0,0,8,8h8v16h-8a24.0275,24.0275,0,0,1-24-24V400a40.06838,40.06838,0,0,1,32-39.19507V304.43335L91.16309,335.37891a39.875,39.875,0,0,0-26.03516,27.76757L37.01855,469.96387A8.00045,8.00045,0,0,0,44.75488,480H467.24512a8.00045,8.00045,0,0,0,7.73633-10.03613Z"/><path d="M304,432a16,16,0,1,0,24-13.835V432H312V418.165A15.99606,15.99606,0,0,0,304,432Z"/></g></svg>