<svg id="Icons" height="512" viewBox="0 0 60 60" width="512" xmlns="http://www.w3.org/2000/svg"><path d="m13.53 49.943 2.962-4.151c-3.711 1.181-9.01 3.14-10.785 4.915-2.081 2.081-3.442 4.077-3.672 7.293h14.092l-2.794-6.051a2 2 0 0 1 .197-2.006z"/><path d="m15.154 51.111 3.176 6.889h2.45l-2.308-11.539z"/><path d="m16 27a1 1 0 0 1 1 1v2.18a3.01 3.01 0 0 0 1.028 2.267l5.5 4.81a2.993 2.993 0 0 0 1.972.743h3a2.992 2.992 0 0 0 1.971-.742l5.5-4.811a3.01 3.01 0 0 0 1.029-2.267v-2.18a1 1 0 0 1 1-1 3 3 0 0 0 2.951-2.5 12.98 12.98 0 0 1 -1.991-1.3.989.989 0 0 1 -1.96-.2v-1.7a13.01 13.01 0 0 1 -2.311-4.15c-6.924.626-7.507-1.363-13-3.2a2.819 2.819 0 0 0 -2.666.18c-1.653 1.184-2.023 4.64-2.023 5.87v3a1 1 0 0 1 -2 0v-1.8a2.981 2.981 0 0 0 1 5.8zm7-3a1 1 0 0 1 -2 0v-1a1 1 0 0 1 2 0zm5 12h-2a1 1 0 0 1 0-2h2a1 1 0 0 1 0 2zm1-3h-4a1 1 0 0 1 0-2h4a1 1 0 0 1 0 2zm4-9a1 1 0 0 1 -2 0v-1a1 1 0 0 1 2 0zm-3-5h4a1 1 0 0 1 0 2h-4a1 1 0 0 1 0-2zm-4 8h2a1 1 0 0 1 0 2h-2a1 1 0 0 1 0-2zm-6-8h4a1 1 0 0 1 0 2h-4a1 1 0 0 1 0-2z"/><path d="m22.316 12.051c5.64 1.881 5.881 3.621 11.882 3.13a12.709 12.709 0 0 1 1.037-7.675 14.875 14.875 0 0 0 -2.927-1.313 1.5 1.5 0 0 1 -.727-2.347 4.337 4.337 0 0 1 .815-.832c-9.396-3.514-13.356 3.228-13.524 3.526a1.009 1.009 0 0 1 -.426.405c-3.789 1.89-4.262 5.429-2.953 9.441.972-3.586 3.307-5.506 6.823-4.335z"/><path d="m25.5 40c-2.107 0-3.178-1.141-4.257-2.085a16.465 16.465 0 0 1 -1.082 5.9c2.989 2.927 10.686 2.93 13.677 0a16.468 16.468 0 0 1 -1.081-5.9c-2.657 2.324-2.719 2.085-7.257 2.085z"/><path d="m24.732 47.852a11.863 11.863 0 0 1 -4.21-1.339l.649 3.244.826.826z"/><path d="m44 56h3v2h-3z"/><path d="m37.508 45.792 2.966 4.157a2 2 0 0 1 .2 2l-2.801 6.051h4.127v-2a2 2 0 0 1 2-2h3a2 2 0 0 1 2 2v2h2.965c-.23-3.216-1.591-5.212-3.672-7.293-1.775-1.775-7.074-3.734-10.785-4.915z"/><path d="m29.266 47.852 2.734 2.731.832-.827.649-3.243a11.868 11.868 0 0 1 -4.215 1.339z"/><path d="m35.528 46.459-2.308 11.541h2.45l3.182-6.89z"/><path d="m47 2a11 11 0 1 0 11 11 11.013 11.013 0 0 0 -11-11zm7 7h-1v2a6.006 6.006 0 0 1 -5 5.91v2.09h1a1 1 0 0 1 0 2h-4a1 1 0 0 1 0-2h1v-2.09a6.006 6.006 0 0 1 -5-5.91v-2h-1a1 1 0 0 1 0-2h2a1 1 0 0 1 1 1v3a4 4 0 0 0 3 3.858v-5.858h-1a1 1 0 0 1 0-2h4a1 1 0 0 1 0 2h-1v5.858a4 4 0 0 0 3-3.858v-3a1 1 0 0 1 1-1h2a1 1 0 0 1 0 2z"/><path d="m30.583 52-3.583-3.586-3.583 3.586a1.994 1.994 0 0 1 -1.686.56l1.089 5.44h8.36l1.089-5.443a1.966 1.966 0 0 1 -1.686-.557zm-3.583 5a1 1 0 1 1 1-1 1 1 0 0 1 -1 1zm0-4a1 1 0 1 1 1-1 1 1 0 0 1 -1 1z"/></svg>